<svg id="Layer_3" data-name="Layer 3" xmlns="http://www.w3.org/2000/svg" viewBox="0 0 164.202 55.355"><defs><style>.cls-1{fill:#ff556e}.cls-2{fill:#333}</style></defs><path class="cls-1" d="M15.786 24.635a1.02 1.02 0 0 0-1.021-1.02H11.2a1.02 1.02 0 0 0-1.02 1.02V28.2a1.02 1.02 0 0 0 1.02 1.021h3.562a1.02 1.02 0 0 0 1.024-1.021v-3.565ZM24.689 24.635a1.02 1.02 0 0 0-1.02-1.02h-3.562a1.02 1.02 0 0 0-1.02 1.02V28.2a1.02 1.02 0 0 0 1.02 1.021h3.563a1.02 1.02 0 0 0 1.02-1.021v-3.565ZM33.592 24.635a1.02 1.02 0 0 0-1.02-1.02H29.01a1.02 1.02 0 0 0-1.021 1.02V28.2a1.02 1.02 0 0 0 1.021 1.021h3.562a1.02 1.02 0 0 0 1.02-1.021v-3.565ZM15.786 33.538a1.02 1.02 0 0 0-1.021-1.02H11.2a1.02 1.02 0 0 0-1.02 1.02V37.1a1.02 1.02 0 0 0 1.02 1.02h3.562a1.02 1.02 0 0 0 1.021-1.02v-3.562ZM24.689 33.538a1.02 1.02 0 0 0-1.02-1.02h-3.562a1.02 1.02 0 0 0-1.02 1.02V37.1a1.02 1.02 0 0 0 1.02 1.02h3.563a1.02 1.02 0 0 0 1.02-1.02v-3.562ZM33.592 33.538a1.02 1.02 0 0 0-1.02-1.02H29.01a1.02 1.02 0 0 0-1.021 1.02V37.1a1.02 1.02 0 0 0 1.021 1.02h3.563a1.02 1.02 0 0 0 1.02-1.02v-3.562Z" transform="translate(.101 .177)"/><path class="cls-1" d="M39.962 4.83v5.44a4.443 4.443 0 0 1-4.453 4.441H32.7a4.466 4.466 0 0 1-4.48-4.441V4.811H15.556v5.46a4.466 4.466 0 0 1-4.48 4.441H8.267a4.443 4.443 0 0 1-4.453-4.441V4.83A4.05 4.05 0 0 0-.1 8.859v31.883A4.052 4.052 0 0 0 3.93 44.8h35.915a4.056 4.056 0 0 0 4.031-4.055V8.859a4.05 4.05 0 0 0-3.914-4.029Zm-1.3 33.926a1.743 1.743 0 0 1-1.748 1.744H6.784a1.743 1.743 0 0 1-1.743-1.743V22.288a1.743 1.743 0 0 1 1.743-1.743h30.13a1.743 1.743 0 0 1 1.743 1.743v16.469Z" transform="translate(.101 .177)"/><path class="cls-1" d="M8.257 11.795h2.779a1.527 1.527 0 0 0 1.527-1.526V1.35a1.527 1.527 0 0 0-1.527-1.527H8.257A1.527 1.527 0 0 0 6.729 1.35v8.919a1.527 1.527 0 0 0 1.528 1.526ZM32.663 11.795h2.779a1.526 1.526 0 0 0 1.527-1.526V1.35a1.527 1.527 0 0 0-1.527-1.527h-2.779a1.527 1.527 0 0 0-1.527 1.527v8.919a1.527 1.527 0 0 0 1.527 1.526Z" transform="translate(.101 .177)"/><path class="cls-2" d="M84.225 31.249a10.336 10.336 0 0 1-4.159 8.66A16.071 16.071 0 0 1 69.982 43.1a10.376 10.376 0 0 1-6.58-2.022q-2.594-2.021-2.878-3.447a12.984 12.984 0 0 1 2.676-4.217 9.027 9.027 0 0 1 3.7-2.849q2.9 1.881 5.412 8.375 3.7-.113 3.7-4.045a11.662 11.662 0 0 0-1.737-5.327 51.841 51.841 0 0 0-3.789-5.925 42.459 42.459 0 0 1-3.789-6.21 13.923 13.923 0 0 1-1.737-6.125 7.966 7.966 0 0 1 3.5-6.837 13.235 13.235 0 0 1 7.891-2.507 10.876 10.876 0 0 1 6.809 1.88 5.381 5.381 0 0 1 2.422 4.273 8.361 8.361 0 0 1-1.823 4.9 21.122 21.122 0 0 1-3.646 3.988L78.3 18.486q.684.913 1.652 2.336a42.189 42.189 0 0 1 2.62 4.843 13.668 13.668 0 0 1 1.653 5.584Zm-4.358-18.687a8.523 8.523 0 0 0 1.4-1.795 4.286 4.286 0 0 0 .626-2.222 2.3 2.3 0 0 0-1.367-1.965 6.391 6.391 0 0 0-3.275-.8 5.5 5.5 0 0 0-3.191.883 2.538 2.538 0 0 0-1.281 2.108 6.449 6.449 0 0 0 .826 2.849 19.363 19.363 0 0 0 1.623 2.707l.855 1.083a14.18 14.18 0 0 0 1.794-1.2 20.841 20.841 0 0 0 1.99-1.648ZM92.714 42.643q-4.786 0-4.785-5.241a61.229 61.229 0 0 1 1.139-7.235 55.09 55.09 0 0 0 1.14-9.971 5.418 5.418 0 0 0-.228-1.6 23.924 23.924 0 0 1 8.432-1.2 9.076 9.076 0 0 1 .285 2.734 51.61 51.61 0 0 1-1.253 8.034 52.576 52.576 0 0 0-1.254 7.862q0 1.767 1.481 1.766a7.928 7.928 0 0 0 4.273-1.766q.284-3.362 2.278-17.719 1.994-.8 7.179-.8h1.083a110.152 110.152 0 0 0-2.108 12.307q-1.025 8.033-1.652 11.166a22.668 22.668 0 0 1-4.415 10.228 10.317 10.317 0 0 1-8.4 3.959 6.754 6.754 0 0 1-3.736-1.067 3.224 3.224 0 0 1-1.68-2.8q0-2.279 2.792-4.159a21.733 21.733 0 0 1 7.521-2.905q.513-2.508.8-4.843a15.545 15.545 0 0 1-8.892 3.25Zm2.764 5.926q-1.91 1.138-1.909 2.222a1.025 1.025 0 0 0 1.226 1.083 4.776 4.776 0 0 0 2.763-1.168 8.54 8.54 0 0 0 2.564-3.789 14.032 14.032 0 0 0-4.644 1.652ZM115.275 42.587h-1.082a60.561 60.561 0 0 1 1.624-10.255 85.925 85.925 0 0 0 1.623-8.6 6.732 6.732 0 0 0-1.595-3.988l-.513-.684.057-.741a40.561 40.561 0 0 1 9.856-.854 6.342 6.342 0 0 1 .8 3.533q4.957-3.817 8.375-3.817a4.106 4.106 0 0 1 3.276 1.424 5.269 5.269 0 0 1 1.225 3.561 35.913 35.913 0 0 1-1.311 7.378 36.545 36.545 0 0 0-1.311 7.036q0 1.794.456 1.795a10.474 10.474 0 0 0 2.393-1.083l.684-.342 1.026 1.994q-.513.457-1.368 1.14a20.281 20.281 0 0 1-3.162 1.852A9.338 9.338 0 0 1 132.2 43.1q-4.16 0-4.159-4.729a38.373 38.373 0 0 1 1.282-7.35 40.243 40.243 0 0 0 1.281-6.894q0-1.539-.969-1.539a8.369 8.369 0 0 0-4.045 1.424q-.171.97-1.14 5.128-2 8.944-1.994 12.647-1.996.8-7.181.8ZM155.784 20.025q-2.279 0-3.646 3.789a23.726 23.726 0 0 0-1.367 8.118q0 6.838 4.216 6.837a7.417 7.417 0 0 0 2.905-.655 14.228 14.228 0 0 0 2.45-1.281l.854-.685 1.311 1.767a9.282 9.282 0 0 1-1.823 1.652 25.073 25.073 0 0 1-2.563 1.709 15.1 15.1 0 0 1-3.077 1.254 12.755 12.755 0 0 1-3.7.569q-4.444 0-6.666-2.905a12.534 12.534 0 0 1-2.222-7.806q0-6.779 3.731-11a12.237 12.237 0 0 1 9.6-4.216 9.683 9.683 0 0 1 6.067 1.738 5.226 5.226 0 0 1 2.25 4.273 6.4 6.4 0 0 1-1.595 4.358 10.616 10.616 0 0 1-3.3-.627 7.651 7.651 0 0 1-2.849-1.538l.854-5.014a2.548 2.548 0 0 0-1.43-.337Z" transform="translate(.101 .177)"/></svg>